<?xml version="1.0" encoding="UTF-8" standalone="no"?><svg xmlns="http://www.w3.org/2000/svg" xmlns:xlink="http://www.w3.org/1999/xlink" contentScriptType="application/ecmascript" contentStyleType="text/css" height="1096px" preserveAspectRatio="none" style="width:1730px;height:1096px;" version="1.1" viewBox="0 0 1730 1096" width="1730px" zoomAndPan="magnify"><defs><filter height="300%" id="fhpgu35" width="300%" x="-1" y="-1"><feGaussianBlur result="blurOut" stdDeviation="2.0"/><feColorMatrix in="blurOut" result="blurOut2" type="matrix" values="0 0 0 0 0 0 0 0 0 0 0 0 0 0 0 0 0 0 .4 0"/><feOffset dx="4.0" dy="4.0" in="blurOut2" result="blurOut3"/><feBlend in="SourceGraphic" in2="blurOut3" mode="normal"/></filter></defs><g><line style="stroke: #A80036; stroke-width: 1.0; stroke-dasharray: 5.0,5.0;" x1="280" x2="280" y1="86.2969" y2="1011.8125"/><line style="stroke: #A80036; stroke-width: 1.0; stroke-dasharray: 5.0,5.0;" x1="464" x2="464" y1="86.2969" y2="1011.8125"/><line style="stroke: #A80036; stroke-width: 1.0; stroke-dasharray: 5.0,5.0;" x1="813.5" x2="813.5" y1="86.2969" y2="1011.8125"/><line style="stroke: #A80036; stroke-width: 1.0; stroke-dasharray: 5.0,5.0;" x1="919.5" x2="919.5" y1="86.2969" y2="1011.8125"/><line style="stroke: #A80036; stroke-width: 1.0; stroke-dasharray: 5.0,5.0;" x1="1017.5" x2="1017.5" y1="86.2969" y2="1011.8125"/><line style="stroke: #A80036; stroke-width: 1.0; stroke-dasharray: 5.0,5.0;" x1="1094.5" x2="1094.5" y1="86.2969" y2="1011.8125"/><line style="stroke: #A80036; stroke-width: 1.0; stroke-dasharray: 5.0,5.0;" x1="1198.5" x2="1198.5" y1="86.2969" y2="1011.8125"/><line style="stroke: #A80036; stroke-width: 1.0; stroke-dasharray: 5.0,5.0;" x1="1313.5" x2="1313.5" y1="86.2969" y2="1011.8125"/><line style="stroke: #A80036; stroke-width: 1.0; stroke-dasharray: 5.0,5.0;" x1="1443.5" x2="1443.5" y1="86.2969" y2="1011.8125"/><line style="stroke: #A80036; stroke-width: 1.0; stroke-dasharray: 5.0,5.0;" x1="1548.5" x2="1548.5" y1="86.2969" y2="1011.8125"/><text fill="#000000" font-family="sans-serif" font-size="14" lengthAdjust="spacingAndGlyphs" textLength="29" x="263" y="82.9951">Pilot</text><ellipse cx="280.5" cy="13" fill="#FEFECE" filter="url(#fhpgu35)" rx="8" ry="8" style="stroke: #A80036; stroke-width: 2.0;"/><path d="M280.5,21 L280.5,48 M267.5,29 L293.5,29 M280.5,48 L267.5,63 M280.5,48 L293.5,63 " fill="#FEFECE" filter="url(#fhpgu35)" style="stroke: #A80036; stroke-width: 2.0;"/><text fill="#000000" font-family="sans-serif" font-size="14" lengthAdjust="spacingAndGlyphs" textLength="29" x="263" y="1023.8076">Pilot</text><ellipse cx="280.5" cy="1037.1094" fill="#FEFECE" filter="url(#fhpgu35)" rx="8" ry="8" style="stroke: #A80036; stroke-width: 2.0;"/><path d="M280.5,1045.1094 L280.5,1072.1094 M267.5,1053.1094 L293.5,1053.1094 M280.5,1072.1094 L267.5,1087.1094 M280.5,1072.1094 L293.5,1087.1094 " fill="#FEFECE" filter="url(#fhpgu35)" style="stroke: #A80036; stroke-width: 2.0;"/><text fill="#000000" font-family="sans-serif" font-size="14" lengthAdjust="spacingAndGlyphs" textLength="29" x="447" y="82.9951">GAT</text><ellipse cx="464.5" cy="13" fill="#FEFECE" filter="url(#fhpgu35)" rx="8" ry="8" style="stroke: #A80036; stroke-width: 2.0;"/><path d="M464.5,21 L464.5,48 M451.5,29 L477.5,29 M464.5,48 L451.5,63 M464.5,48 L477.5,63 " fill="#FEFECE" filter="url(#fhpgu35)" style="stroke: #A80036; stroke-width: 2.0;"/><text fill="#000000" font-family="sans-serif" font-size="14" lengthAdjust="spacingAndGlyphs" textLength="29" x="447" y="1023.8076">GAT</text><ellipse cx="464.5" cy="1037.1094" fill="#FEFECE" filter="url(#fhpgu35)" rx="8" ry="8" style="stroke: #A80036; stroke-width: 2.0;"/><path d="M464.5,1045.1094 L464.5,1072.1094 M451.5,1053.1094 L477.5,1053.1094 M464.5,1072.1094 L451.5,1087.1094 M464.5,1072.1094 L477.5,1087.1094 " fill="#FEFECE" filter="url(#fhpgu35)" style="stroke: #A80036; stroke-width: 2.0;"/><rect fill="#FEFECE" filter="url(#fhpgu35)" height="30.2969" style="stroke: #A80036; stroke-width: 1.5;" width="70" x="776.5" y="51"/><text fill="#000000" font-family="sans-serif" font-size="14" lengthAdjust="spacingAndGlyphs" textLength="56" x="783.5" y="70.9951">GADesk</text><rect fill="#FEFECE" filter="url(#fhpgu35)" height="30.2969" style="stroke: #A80036; stroke-width: 1.5;" width="70" x="776.5" y="1010.8125"/><text fill="#000000" font-family="sans-serif" font-size="14" lengthAdjust="spacingAndGlyphs" textLength="56" x="783.5" y="1030.8076">GADesk</text><text fill="#000000" font-family="sans-serif" font-size="14" lengthAdjust="spacingAndGlyphs" textLength="112" x="860.5" y="82.9951">GroundHandling</text><ellipse cx="919.5" cy="13" fill="#FEFECE" filter="url(#fhpgu35)" rx="8" ry="8" style="stroke: #A80036; stroke-width: 2.0;"/><path d="M919.5,21 L919.5,48 M906.5,29 L932.5,29 M919.5,48 L906.5,63 M919.5,48 L932.5,63 " fill="#FEFECE" filter="url(#fhpgu35)" style="stroke: #A80036; stroke-width: 2.0;"/><text fill="#000000" font-family="sans-serif" font-size="14" lengthAdjust="spacingAndGlyphs" textLength="112" x="860.5" y="1023.8076">GroundHandling</text><ellipse cx="919.5" cy="1037.1094" fill="#FEFECE" filter="url(#fhpgu35)" rx="8" ry="8" style="stroke: #A80036; stroke-width: 2.0;"/><path d="M919.5,1045.1094 L919.5,1072.1094 M906.5,1053.1094 L932.5,1053.1094 M919.5,1072.1094 L906.5,1087.1094 M919.5,1072.1094 L932.5,1087.1094 " fill="#FEFECE" filter="url(#fhpgu35)" style="stroke: #A80036; stroke-width: 2.0;"/><rect fill="#FEFECE" filter="url(#fhpgu35)" height="30.2969" style="stroke: #A80036; stroke-width: 1.5;" width="55" x="988.5" y="51"/><text fill="#000000" font-family="sans-serif" font-size="14" lengthAdjust="spacingAndGlyphs" textLength="41" x="995.5" y="70.9951">AODB</text><rect fill="#FEFECE" filter="url(#fhpgu35)" height="30.2969" style="stroke: #A80036; stroke-width: 1.5;" width="55" x="988.5" y="1010.8125"/><text fill="#000000" font-family="sans-serif" font-size="14" lengthAdjust="spacingAndGlyphs" textLength="41" x="995.5" y="1030.8076">AODB</text><rect fill="#FEFECE" filter="url(#fhpgu35)" height="30.2969" style="stroke: #A80036; stroke-width: 1.5;" width="71" x="1057.5" y="51"/><text fill="#000000" font-family="sans-serif" font-size="14" lengthAdjust="spacingAndGlyphs" textLength="57" x="1064.5" y="70.9951">Sensors</text><rect fill="#FEFECE" filter="url(#fhpgu35)" height="30.2969" style="stroke: #A80036; stroke-width: 1.5;" width="71" x="1057.5" y="1010.8125"/><text fill="#000000" font-family="sans-serif" font-size="14" lengthAdjust="spacingAndGlyphs" textLength="57" x="1064.5" y="1030.8076">Sensors</text><rect fill="#FEFECE" filter="url(#fhpgu35)" height="30.2969" style="stroke: #A80036; stroke-width: 1.5;" width="109" x="1142.5" y="51"/><text fill="#000000" font-family="sans-serif" font-size="14" lengthAdjust="spacingAndGlyphs" textLength="95" x="1149.5" y="70.9951">AirportService</text><rect fill="#FEFECE" filter="url(#fhpgu35)" height="30.2969" style="stroke: #A80036; stroke-width: 1.5;" width="109" x="1142.5" y="1010.8125"/><text fill="#000000" font-family="sans-serif" font-size="14" lengthAdjust="spacingAndGlyphs" textLength="95" x="1149.5" y="1030.8076">AirportService</text><rect fill="#FEFECE" filter="url(#fhpgu35)" height="30.2969" style="stroke: #A80036; stroke-width: 1.5;" width="92" x="1265.5" y="51"/><text fill="#000000" font-family="sans-serif" font-size="14" lengthAdjust="spacingAndGlyphs" textLength="78" x="1272.5" y="70.9951">Accounting</text><rect fill="#FEFECE" filter="url(#fhpgu35)" height="30.2969" style="stroke: #A80036; stroke-width: 1.5;" width="92" x="1265.5" y="1010.8125"/><text fill="#000000" font-family="sans-serif" font-size="14" lengthAdjust="spacingAndGlyphs" textLength="78" x="1272.5" y="1030.8076">Accounting</text><rect fill="#FEFECE" filter="url(#fhpgu35)" height="30.2969" style="stroke: #A80036; stroke-width: 1.5;" width="141" x="1371.5" y="51"/><text fill="#000000" font-family="sans-serif" font-size="14" lengthAdjust="spacingAndGlyphs" textLength="127" x="1378.5" y="70.9951">BoockingArchiving</text><rect fill="#FEFECE" filter="url(#fhpgu35)" height="30.2969" style="stroke: #A80036; stroke-width: 1.5;" width="141" x="1371.5" y="1010.8125"/><text fill="#000000" font-family="sans-serif" font-size="14" lengthAdjust="spacingAndGlyphs" textLength="127" x="1378.5" y="1030.8076">BoockingArchiving</text><text fill="#000000" font-family="sans-serif" font-size="14" lengthAdjust="spacingAndGlyphs" textLength="39" x="1526.5" y="82.9951">tower</text><ellipse cx="1549" cy="13" fill="#FEFECE" filter="url(#fhpgu35)" rx="8" ry="8" style="stroke: #A80036; stroke-width: 2.0;"/><path d="M1549,21 L1549,48 M1536,29 L1562,29 M1549,48 L1536,63 M1549,48 L1562,63 " fill="#FEFECE" filter="url(#fhpgu35)" style="stroke: #A80036; stroke-width: 2.0;"/><text fill="#000000" font-family="sans-serif" font-size="14" lengthAdjust="spacingAndGlyphs" textLength="39" x="1526.5" y="1023.8076">tower</text><ellipse cx="1549" cy="1037.1094" fill="#FEFECE" filter="url(#fhpgu35)" rx="8" ry="8" style="stroke: #A80036; stroke-width: 2.0;"/><path d="M1549,1045.1094 L1549,1072.1094 M1536,1053.1094 L1562,1053.1094 M1549,1072.1094 L1536,1087.1094 M1549,1072.1094 L1562,1087.1094 " fill="#FEFECE" filter="url(#fhpgu35)" style="stroke: #A80036; stroke-width: 2.0;"/><rect fill="#FFFFFF" filter="url(#fhpgu35)" height="40.2656" style="stroke: #000000; stroke-width: 2.0;" width="221" x="260" y="96.2969"/><polygon fill="#EEEEEE" points="260,96.2969,326,96.2969,326,103.2969,316,113.2969,260,113.2969,260,96.2969" style="stroke: #000000; stroke-width: 2.0;"/><text fill="#000000" font-family="sans-serif" font-size="13" font-weight="bold" lengthAdjust="spacingAndGlyphs" textLength="21" x="273" y="110.3638">ref</text><text fill="#000000" font-family="sans-serif" font-size="13" lengthAdjust="spacingAndGlyphs" textLength="59" x="343" y="129.3638">My Portal</text><polygon fill="#A80036" points="452.5,158.5625,462.5,162.5625,452.5,166.5625,456.5,162.5625" style="stroke: #A80036; stroke-width: 1.0;"/><line style="stroke: #A80036; stroke-width: 1.0;" x1="280.5" x2="458.5" y1="162.5625" y2="162.5625"/><text fill="#000000" font-family="sans-serif" font-size="13" font-weight="bold" lengthAdjust="spacingAndGlyphs" textLength="9" x="287.5" y="157.6294">1</text><text fill="#000000" font-family="sans-serif" font-size="13" lengthAdjust="spacingAndGlyphs" textLength="72" x="300.5" y="157.6294">PPR Reqest</text><polygon fill="#A80036" points="1537,187.6953,1547,191.6953,1537,195.6953,1541,191.6953" style="stroke: #A80036; stroke-width: 1.0;"/><line style="stroke: #A80036; stroke-width: 1.0;" x1="280.5" x2="1543" y1="191.6953" y2="191.6953"/><text fill="#000000" font-family="sans-serif" font-size="13" font-weight="bold" lengthAdjust="spacingAndGlyphs" textLength="9" x="287.5" y="186.7622">2</text><text fill="#000000" font-family="sans-serif" font-size="13" lengthAdjust="spacingAndGlyphs" textLength="120" x="300.5" y="186.7622">request for landing</text><polygon fill="#A80036" points="291.5,216.8281,281.5,220.8281,291.5,224.8281,287.5,220.8281" style="stroke: #A80036; stroke-width: 1.0;"/><line style="stroke: #A80036; stroke-width: 1.0;" x1="285.5" x2="1548" y1="220.8281" y2="220.8281"/><text fill="#000000" font-family="sans-serif" font-size="13" font-weight="bold" lengthAdjust="spacingAndGlyphs" textLength="9" x="297.5" y="215.895">3</text><text fill="#000000" font-family="sans-serif" font-size="13" lengthAdjust="spacingAndGlyphs" textLength="73" x="310.5" y="215.895">free to land</text><polygon fill="#A80036" points="1029,258.5273,1019,262.5273,1029,266.5273,1025,262.5273" style="stroke: #A80036; stroke-width: 1.0;"/><line style="stroke: #A80036; stroke-width: 1.0;" x1="1023" x2="1548" y1="262.5273" y2="262.5273"/><text fill="#000000" font-family="sans-serif" font-size="13" font-weight="bold" lengthAdjust="spacingAndGlyphs" textLength="9" x="1035" y="257.5942">4</text><text fill="#000000" font-family="sans-serif" font-size="13" lengthAdjust="spacingAndGlyphs" textLength="86" x="1048" y="257.5942">landing event</text><polygon fill="#FBFB77" filter="url(#fhpgu35)" points="790,233.9609,790,273.9609,1009,273.9609,1009,243.9609,999,233.9609,790,233.9609" style="stroke: #A80036; stroke-width: 1.0;"/><line style="stroke: #A80036; stroke-width: 1.0;" x1="999" x2="999" y1="233.9609" y2="243.9609"/><line style="stroke: #A80036; stroke-width: 1.0;" x1="1009" x2="999" y1="243.9609" y2="243.9609"/><text fill="#000000" font-family="sans-serif" font-size="13" lengthAdjust="spacingAndGlyphs" textLength="194" x="796" y="251.0278">Landing Event s the first Event</text><text fill="#000000" font-family="sans-serif" font-size="13" lengthAdjust="spacingAndGlyphs" textLength="126" x="800" y="266.1606">which open the turn</text><polygon fill="#A80036" points="452.5,320.3594,462.5,324.3594,452.5,328.3594,456.5,324.3594" style="stroke: #A80036; stroke-width: 1.0;"/><line style="stroke: #A80036; stroke-width: 1.0;" x1="280.5" x2="458.5" y1="324.3594" y2="324.3594"/><text fill="#000000" font-family="sans-serif" font-size="13" font-weight="bold" lengthAdjust="spacingAndGlyphs" textLength="9" x="287.5" y="319.4263">5</text><text fill="#000000" font-family="sans-serif" font-size="13" lengthAdjust="spacingAndGlyphs" textLength="49" x="300.5" y="319.4263">Ckeckin</text><polygon fill="#FBFB77" filter="url(#fhpgu35)" points="8,288.2266,8,343.2266,272,343.2266,272,298.2266,262,288.2266,8,288.2266" style="stroke: #A80036; stroke-width: 1.0;"/><line style="stroke: #A80036; stroke-width: 1.0;" x1="262" x2="262" y1="288.2266" y2="298.2266"/><line style="stroke: #A80036; stroke-width: 1.0;" x1="272" x2="262" y1="298.2266" y2="298.2266"/><text fill="#000000" font-family="sans-serif" font-size="13" lengthAdjust="spacingAndGlyphs" textLength="128" x="14" y="305.2935">Pilot check in on the</text><text fill="#000000" font-family="sans-serif" font-size="13" lengthAdjust="spacingAndGlyphs" textLength="235" x="18" y="320.4263">GA Desk (GAT) and identifies with his</text><text fill="#000000" font-family="sans-serif" font-size="13" lengthAdjust="spacingAndGlyphs" textLength="92" x="18" y="335.5591">PPR Reference</text><polygon fill="#A80036" points="801.5,369.625,811.5,373.625,801.5,377.625,805.5,373.625" style="stroke: #A80036; stroke-width: 1.0;"/><line style="stroke: #A80036; stroke-width: 1.0;" x1="464.5" x2="807.5" y1="373.625" y2="373.625"/><text fill="#000000" font-family="sans-serif" font-size="13" font-weight="bold" lengthAdjust="spacingAndGlyphs" textLength="9" x="471.5" y="368.6919">6</text><text fill="#000000" font-family="sans-serif" font-size="13" lengthAdjust="spacingAndGlyphs" textLength="247" x="484.5" y="368.6919">Links together landing and ppr request</text><polygon fill="#A80036" points="1187,398.7578,1197,402.7578,1187,406.7578,1191,402.7578" style="stroke: #A80036; stroke-width: 1.0;"/><line style="stroke: #A80036; stroke-width: 1.0;" x1="813.5" x2="1193" y1="402.7578" y2="402.7578"/><text fill="#000000" font-family="sans-serif" font-size="13" font-weight="bold" lengthAdjust="spacingAndGlyphs" textLength="9" x="820.5" y="397.8247">7</text><text fill="#000000" font-family="sans-serif" font-size="13" lengthAdjust="spacingAndGlyphs" textLength="94" x="833.5" y="397.8247">opens GA Turn</text><polygon fill="#FBFB77" filter="url(#fhpgu35)" points="253,415.8906,307,415.8906,317,434.8906,307,453.8906,253,453.8906,243,434.8906,253,415.8906" style="stroke: #A80036; stroke-width: 1.0;"/><text fill="#000000" font-family="sans-serif" font-size="13" lengthAdjust="spacingAndGlyphs" textLength="50" x="255" y="431.9575">Checkin</text><text fill="#000000" font-family="sans-serif" font-size="13" lengthAdjust="spacingAndGlyphs" textLength="49" x="255" y="447.0903">finished</text><polygon fill="#A80036" points="1187,476.1563,1197,480.1563,1187,484.1563,1191,480.1563" style="stroke: #A80036; stroke-width: 1.0;"/><line style="stroke: #A80036; stroke-width: 1.0;" x1="813.5" x2="1193" y1="480.1563" y2="480.1563"/><text fill="#000000" font-family="sans-serif" font-size="13" font-weight="bold" lengthAdjust="spacingAndGlyphs" textLength="9" x="820.5" y="475.2231">8</text><text fill="#000000" font-family="sans-serif" font-size="13" lengthAdjust="spacingAndGlyphs" textLength="191" x="833.5" y="475.2231">collects additional information</text><polygon fill="#A80036" points="907.5,505.2891,917.5,509.2891,907.5,513.2891,911.5,509.2891" style="stroke: #A80036; stroke-width: 1.0;"/><line style="stroke: #A80036; stroke-width: 1.0;" x1="280.5" x2="913.5" y1="509.2891" y2="509.2891"/><text fill="#000000" font-family="sans-serif" font-size="13" font-weight="bold" lengthAdjust="spacingAndGlyphs" textLength="9" x="287.5" y="504.356">9</text><text fill="#000000" font-family="sans-serif" font-size="13" lengthAdjust="spacingAndGlyphs" textLength="145" x="300.5" y="504.356">used aditional services</text><polygon fill="#A80036" points="824.5,534.4219,814.5,538.4219,824.5,542.4219,820.5,538.4219" style="stroke: #A80036; stroke-width: 1.0;"/><line style="stroke: #A80036; stroke-width: 1.0;" x1="818.5" x2="1094" y1="538.4219" y2="538.4219"/><text fill="#000000" font-family="sans-serif" font-size="13" font-weight="bold" lengthAdjust="spacingAndGlyphs" textLength="18" x="830.5" y="533.4888">10</text><text fill="#000000" font-family="sans-serif" font-size="13" lengthAdjust="spacingAndGlyphs" textLength="214" x="852.5" y="533.4888">Collect additional data ( e.g. Fuel)</text><polygon fill="#A80036" points="1187,563.5547,1197,567.5547,1187,571.5547,1191,567.5547" style="stroke: #A80036; stroke-width: 1.0;"/><line style="stroke: #A80036; stroke-width: 1.0;" x1="813.5" x2="1193" y1="567.5547" y2="567.5547"/><text fill="#000000" font-family="sans-serif" font-size="13" font-weight="bold" lengthAdjust="spacingAndGlyphs" textLength="18" x="820.5" y="562.6216">11</text><text fill="#000000" font-family="sans-serif" font-size="13" lengthAdjust="spacingAndGlyphs" textLength="80" x="842.5" y="562.6216">add services</text><rect fill="#FFFFFF" filter="url(#fhpgu35)" height="55.3984" style="stroke: #000000; stroke-width: 2.0;" width="198" x="1523.5" y="575.6875"/><polygon fill="#EEEEEE" points="1523.5,575.6875,1589.5,575.6875,1589.5,582.6875,1579.5,592.6875,1523.5,592.6875,1523.5,575.6875" style="stroke: #000000; stroke-width: 2.0;"/><text fill="#000000" font-family="sans-serif" font-size="13" font-weight="bold" lengthAdjust="spacingAndGlyphs" textLength="21" x="1536.5" y="589.7544">ref</text><text fill="#000000" font-family="sans-serif" font-size="13" lengthAdjust="spacingAndGlyphs" textLength="190" x="1529.5" y="608.7544">Tower records the operational</text><text fill="#000000" font-family="sans-serif" font-size="13" lengthAdjust="spacingAndGlyphs" textLength="64" x="1529.5" y="623.8872">flight data</text><rect fill="#FFFFFF" filter="url(#fhpgu35)" height="40.2656" style="stroke: #000000; stroke-width: 2.0;" width="481" x="773.5" y="636.0859"/><polygon fill="#EEEEEE" points="773.5,636.0859,839.5,636.0859,839.5,643.0859,829.5,653.0859,773.5,653.0859,773.5,636.0859" style="stroke: #000000; stroke-width: 2.0;"/><text fill="#000000" font-family="sans-serif" font-size="13" font-weight="bold" lengthAdjust="spacingAndGlyphs" textLength="21" x="786.5" y="650.1528">ref</text><text fill="#000000" font-family="sans-serif" font-size="13" lengthAdjust="spacingAndGlyphs" textLength="203" x="914.5" y="669.1528">Sensors records additional data</text><polygon fill="#A80036" points="452.5,698.3516,462.5,702.3516,452.5,706.3516,456.5,702.3516" style="stroke: #A80036; stroke-width: 1.0;"/><line style="stroke: #A80036; stroke-width: 1.0;" x1="280.5" x2="458.5" y1="702.3516" y2="702.3516"/><text fill="#000000" font-family="sans-serif" font-size="13" font-weight="bold" lengthAdjust="spacingAndGlyphs" textLength="18" x="287.5" y="697.4185">12</text><text fill="#000000" font-family="sans-serif" font-size="13" lengthAdjust="spacingAndGlyphs" textLength="138" x="309.5" y="697.4185">ask for cash payment</text><polygon fill="#A80036" points="801.5,727.4844,811.5,731.4844,801.5,735.4844,805.5,731.4844" style="stroke: #A80036; stroke-width: 1.0;"/><line style="stroke: #A80036; stroke-width: 1.0;" x1="464.5" x2="807.5" y1="731.4844" y2="731.4844"/><text fill="#000000" font-family="sans-serif" font-size="13" font-weight="bold" lengthAdjust="spacingAndGlyphs" textLength="18" x="471.5" y="726.5513">13</text><text fill="#000000" font-family="sans-serif" font-size="13" lengthAdjust="spacingAndGlyphs" textLength="60" x="493.5" y="726.5513">Checkout</text><polygon fill="#A80036" points="801.5,756.6172,811.5,760.6172,801.5,764.6172,805.5,760.6172" style="stroke: #A80036; stroke-width: 1.0;"/><line style="stroke: #A80036; stroke-width: 1.0;" x1="464.5" x2="807.5" y1="760.6172" y2="760.6172"/><text fill="#000000" font-family="sans-serif" font-size="13" font-weight="bold" lengthAdjust="spacingAndGlyphs" textLength="18" x="471.5" y="755.6841">14</text><text fill="#000000" font-family="sans-serif" font-size="13" lengthAdjust="spacingAndGlyphs" textLength="149" x="493.5" y="755.6841">Add's aditional services</text><polygon fill="#A80036" points="801.5,785.75,811.5,789.75,801.5,793.75,805.5,789.75" style="stroke: #A80036; stroke-width: 1.0;"/><line style="stroke: #A80036; stroke-width: 1.0;" x1="464.5" x2="807.5" y1="789.75" y2="789.75"/><text fill="#000000" font-family="sans-serif" font-size="13" font-weight="bold" lengthAdjust="spacingAndGlyphs" textLength="18" x="471.5" y="784.8169">15</text><text fill="#000000" font-family="sans-serif" font-size="13" lengthAdjust="spacingAndGlyphs" textLength="303" x="493.5" y="784.8169">generate PreBilling information and delivery slip</text><polygon fill="#A80036" points="291.5,814.8828,281.5,818.8828,291.5,822.8828,287.5,818.8828" style="stroke: #A80036; stroke-width: 1.0;"/><line style="stroke: #A80036; stroke-width: 1.0;" x1="285.5" x2="463.5" y1="818.8828" y2="818.8828"/><text fill="#000000" font-family="sans-serif" font-size="13" font-weight="bold" lengthAdjust="spacingAndGlyphs" textLength="18" x="297.5" y="813.9497">16</text><text fill="#000000" font-family="sans-serif" font-size="13" lengthAdjust="spacingAndGlyphs" textLength="102" x="319.5" y="813.9497">ask for approval</text><polygon fill="#A80036" points="452.5,844.0156,462.5,848.0156,452.5,852.0156,456.5,848.0156" style="stroke: #A80036; stroke-width: 1.0;"/><line style="stroke: #A80036; stroke-width: 1.0;" x1="280.5" x2="458.5" y1="848.0156" y2="848.0156"/><text fill="#000000" font-family="sans-serif" font-size="13" font-weight="bold" lengthAdjust="spacingAndGlyphs" textLength="18" x="287.5" y="843.0825">17</text><text fill="#000000" font-family="sans-serif" font-size="13" lengthAdjust="spacingAndGlyphs" textLength="55" x="309.5" y="843.0825">approval</text><polygon fill="#A80036" points="1301.5,873.1484,1311.5,877.1484,1301.5,881.1484,1305.5,877.1484" style="stroke: #A80036; stroke-width: 1.0;"/><line style="stroke: #A80036; stroke-width: 1.0;" x1="813.5" x2="1307.5" y1="877.1484" y2="877.1484"/><text fill="#000000" font-family="sans-serif" font-size="13" font-weight="bold" lengthAdjust="spacingAndGlyphs" textLength="18" x="820.5" y="872.2153">18</text><text fill="#000000" font-family="sans-serif" font-size="13" lengthAdjust="spacingAndGlyphs" textLength="140" x="842.5" y="872.2153">send billig information</text><polygon fill="#A80036" points="1432,902.2813,1442,906.2813,1432,910.2813,1436,906.2813" style="stroke: #A80036; stroke-width: 1.0;"/><line style="stroke: #A80036; stroke-width: 1.0;" x1="813.5" x2="1438" y1="906.2813" y2="906.2813"/><text fill="#000000" font-family="sans-serif" font-size="13" font-weight="bold" lengthAdjust="spacingAndGlyphs" textLength="18" x="820.5" y="901.3481">19</text><text fill="#000000" font-family="sans-serif" font-size="13" lengthAdjust="spacingAndGlyphs" textLength="138" x="842.5" y="901.3481">call archiving services</text><polygon fill="#A80036" points="824.5,931.4141,814.5,935.4141,824.5,939.4141,820.5,935.4141" style="stroke: #A80036; stroke-width: 1.0;"/><line style="stroke: #A80036; stroke-width: 1.0;" x1="818.5" x2="1312.5" y1="935.4141" y2="935.4141"/><text fill="#000000" font-family="sans-serif" font-size="13" font-weight="bold" lengthAdjust="spacingAndGlyphs" textLength="18" x="830.5" y="930.481">20</text><text fill="#000000" font-family="sans-serif" font-size="13" lengthAdjust="spacingAndGlyphs" textLength="106" x="852.5" y="930.481">generate receipt</text><polygon fill="#A80036" points="801.5,960.5469,811.5,964.5469,801.5,968.5469,805.5,964.5469" style="stroke: #A80036; stroke-width: 1.0;"/><line style="stroke: #A80036; stroke-width: 1.0;" x1="464.5" x2="807.5" y1="964.5469" y2="964.5469"/><text fill="#000000" font-family="sans-serif" font-size="13" font-weight="bold" lengthAdjust="spacingAndGlyphs" textLength="18" x="471.5" y="959.6138">21</text><text fill="#000000" font-family="sans-serif" font-size="13" lengthAdjust="spacingAndGlyphs" textLength="84" x="493.5" y="959.6138">Prints Invoice</text><polygon fill="#A80036" points="1187,989.6797,1197,993.6797,1187,997.6797,1191,993.6797" style="stroke: #A80036; stroke-width: 1.0;"/><line style="stroke: #A80036; stroke-width: 1.0;" x1="813.5" x2="1193" y1="993.6797" y2="993.6797"/><text fill="#000000" font-family="sans-serif" font-size="13" font-weight="bold" lengthAdjust="spacingAndGlyphs" textLength="18" x="820.5" y="988.7466">22</text><text fill="#000000" font-family="sans-serif" font-size="13" lengthAdjust="spacingAndGlyphs" textLength="90" x="842.5" y="988.7466">Close GA Turn</text></g></svg>