<?xml version="1.0" encoding="UTF-8" standalone="no"?><svg xmlns="http://www.w3.org/2000/svg" xmlns:xlink="http://www.w3.org/1999/xlink" contentScriptType="application/ecmascript" contentStyleType="text/css" height="485px" preserveAspectRatio="none" style="width:964px;height:485px;" version="1.1" viewBox="0 0 964 485" width="964px" zoomAndPan="magnify"><defs><filter height="300%" id="fj6kj5h" width="300%" x="-1" y="-1"><feGaussianBlur result="blurOut" stdDeviation="2.0"/><feColorMatrix in="blurOut" result="blurOut2" type="matrix" values="0 0 0 0 0 0 0 0 0 0 0 0 0 0 0 0 0 0 .4 0"/><feOffset dx="4.0" dy="4.0" in="blurOut2" result="blurOut3"/><feBlend in="SourceGraphic" in2="blurOut3" mode="normal"/></filter></defs><g><line style="stroke: #A80036; stroke-width: 1.0; stroke-dasharray: 5.0,5.0;" x1="25" x2="25" y1="86.2969" y2="400.7578"/><line style="stroke: #A80036; stroke-width: 1.0; stroke-dasharray: 5.0,5.0;" x1="269.5" x2="269.5" y1="86.2969" y2="400.7578"/><line style="stroke: #A80036; stroke-width: 1.0; stroke-dasharray: 5.0,5.0;" x1="457" x2="457" y1="86.2969" y2="400.7578"/><line style="stroke: #A80036; stroke-width: 1.0; stroke-dasharray: 5.0,5.0;" x1="667.5" x2="667.5" y1="86.2969" y2="400.7578"/><line style="stroke: #A80036; stroke-width: 1.0; stroke-dasharray: 5.0,5.0;" x1="938" x2="938" y1="86.2969" y2="400.7578"/><text fill="#000000" font-family="sans-serif" font-size="14" lengthAdjust="spacingAndGlyphs" textLength="29" x="8" y="82.9951">Pilot</text><ellipse cx="25.5" cy="13" fill="#FEFECE" filter="url(#fj6kj5h)" rx="8" ry="8" style="stroke: #A80036; stroke-width: 2.0;"/><path d="M25.5,21 L25.5,48 M12.5,29 L38.5,29 M25.5,48 L12.5,63 M25.5,48 L38.5,63 " fill="#FEFECE" filter="url(#fj6kj5h)" style="stroke: #A80036; stroke-width: 2.0;"/><text fill="#000000" font-family="sans-serif" font-size="14" lengthAdjust="spacingAndGlyphs" textLength="29" x="8" y="412.7529">Pilot</text><ellipse cx="25.5" cy="426.0547" fill="#FEFECE" filter="url(#fj6kj5h)" rx="8" ry="8" style="stroke: #A80036; stroke-width: 2.0;"/><path d="M25.5,434.0547 L25.5,461.0547 M12.5,442.0547 L38.5,442.0547 M25.5,461.0547 L12.5,476.0547 M25.5,461.0547 L38.5,476.0547 " fill="#FEFECE" filter="url(#fj6kj5h)" style="stroke: #A80036; stroke-width: 2.0;"/><rect fill="#FEFECE" filter="url(#fj6kj5h)" height="30.2969" style="stroke: #A80036; stroke-width: 1.5;" width="78" x="228.5" y="51"/><text fill="#000000" font-family="sans-serif" font-size="14" lengthAdjust="spacingAndGlyphs" textLength="64" x="235.5" y="70.9951">MyAirport</text><rect fill="#FEFECE" filter="url(#fj6kj5h)" height="30.2969" style="stroke: #A80036; stroke-width: 1.5;" width="78" x="228.5" y="399.7578"/><text fill="#000000" font-family="sans-serif" font-size="14" lengthAdjust="spacingAndGlyphs" textLength="64" x="235.5" y="419.7529">MyAirport</text><rect fill="#FEFECE" filter="url(#fj6kj5h)" height="30.2969" style="stroke: #A80036; stroke-width: 1.5;" width="99" x="406" y="51"/><text fill="#000000" font-family="sans-serif" font-size="14" lengthAdjust="spacingAndGlyphs" textLength="85" x="413" y="70.9951">EventBroker</text><rect fill="#FEFECE" filter="url(#fj6kj5h)" height="30.2969" style="stroke: #A80036; stroke-width: 1.5;" width="99" x="406" y="399.7578"/><text fill="#000000" font-family="sans-serif" font-size="14" lengthAdjust="spacingAndGlyphs" textLength="85" x="413" y="419.7529">EventBroker</text><rect fill="#FEFECE" filter="url(#fj6kj5h)" height="30.2969" style="stroke: #A80036; stroke-width: 1.5;" width="70" x="630.5" y="51"/><text fill="#000000" font-family="sans-serif" font-size="14" lengthAdjust="spacingAndGlyphs" textLength="56" x="637.5" y="70.9951">GADesk</text><rect fill="#FEFECE" filter="url(#fj6kj5h)" height="30.2969" style="stroke: #A80036; stroke-width: 1.5;" width="70" x="630.5" y="399.7578"/><text fill="#000000" font-family="sans-serif" font-size="14" lengthAdjust="spacingAndGlyphs" textLength="56" x="637.5" y="419.7529">GADesk</text><text fill="#000000" font-family="sans-serif" font-size="14" lengthAdjust="spacingAndGlyphs" textLength="29" x="921" y="82.9951">GAT</text><ellipse cx="938.5" cy="13" fill="#FEFECE" filter="url(#fj6kj5h)" rx="8" ry="8" style="stroke: #A80036; stroke-width: 2.0;"/><path d="M938.5,21 L938.5,48 M925.5,29 L951.5,29 M938.5,48 L925.5,63 M938.5,48 L951.5,63 " fill="#FEFECE" filter="url(#fj6kj5h)" style="stroke: #A80036; stroke-width: 2.0;"/><text fill="#000000" font-family="sans-serif" font-size="14" lengthAdjust="spacingAndGlyphs" textLength="29" x="921" y="412.7529">GAT</text><ellipse cx="938.5" cy="426.0547" fill="#FEFECE" filter="url(#fj6kj5h)" rx="8" ry="8" style="stroke: #A80036; stroke-width: 2.0;"/><path d="M938.5,434.0547 L938.5,461.0547 M925.5,442.0547 L951.5,442.0547 M938.5,461.0547 L925.5,476.0547 M938.5,461.0547 L951.5,476.0547 " fill="#FEFECE" filter="url(#fj6kj5h)" style="stroke: #A80036; stroke-width: 2.0;"/><polygon fill="#A80036" points="257.5,113.2969,267.5,117.2969,257.5,121.2969,261.5,117.2969" style="stroke: #A80036; stroke-width: 1.0;"/><line style="stroke: #A80036; stroke-width: 1.0;" x1="25.5" x2="263.5" y1="117.2969" y2="117.2969"/><text fill="#000000" font-family="sans-serif" font-size="13" lengthAdjust="spacingAndGlyphs" textLength="220" x="32.5" y="112.3638">enters Information about the plant</text><polygon fill="#A80036" points="445.5,142.4297,455.5,146.4297,445.5,150.4297,449.5,146.4297" style="stroke: #A80036; stroke-width: 1.0;"/><line style="stroke: #A80036; stroke-width: 1.0;" x1="269.5" x2="451.5" y1="146.4297" y2="146.4297"/><text fill="#000000" font-family="sans-serif" font-size="13" lengthAdjust="spacingAndGlyphs" textLength="164" x="276.5" y="141.4966">Validates and stores data</text><polygon fill="#A80036" points="445.5,171.5625,455.5,175.5625,445.5,179.5625,449.5,175.5625" style="stroke: #A80036; stroke-width: 1.0;"/><line style="stroke: #A80036; stroke-width: 1.0;" x1="25.5" x2="451.5" y1="175.5625" y2="175.5625"/><text fill="#000000" font-family="sans-serif" font-size="13" lengthAdjust="spacingAndGlyphs" textLength="189" x="32.5" y="170.6294">Fligtplan - Request for landing</text><rect fill="#FFFFFF" filter="url(#fj6kj5h)" height="40.2656" style="stroke: #000000; stroke-width: 2.0;" width="503" x="5" y="183.6953"/><polygon fill="#EEEEEE" points="5,183.6953,71,183.6953,71,190.6953,61,200.6953,5,200.6953,5,183.6953" style="stroke: #000000; stroke-width: 2.0;"/><text fill="#000000" font-family="sans-serif" font-size="13" font-weight="bold" lengthAdjust="spacingAndGlyphs" textLength="21" x="18" y="197.7622">ref</text><text fill="#000000" font-family="sans-serif" font-size="13" lengthAdjust="spacingAndGlyphs" textLength="154" x="181.5" y="216.7622">Onboarding/Registration</text><polygon fill="#A80036" points="36.5,245.9609,26.5,249.9609,36.5,253.9609,32.5,249.9609" style="stroke: #A80036; stroke-width: 1.0;"/><line style="stroke: #A80036; stroke-width: 1.0;" x1="30.5" x2="456.5" y1="249.9609" y2="249.9609"/><text fill="#000000" font-family="sans-serif" font-size="13" lengthAdjust="spacingAndGlyphs" textLength="236" x="42.5" y="245.0278">generates unique GAT boarding pass</text><polygon fill="#A80036" points="655.5,275.0938,665.5,279.0938,655.5,283.0938,659.5,279.0938" style="stroke: #A80036; stroke-width: 1.0;"/><line style="stroke: #A80036; stroke-width: 1.0;" x1="457.5" x2="661.5" y1="279.0938" y2="279.0938"/><text fill="#000000" font-family="sans-serif" font-size="13" lengthAdjust="spacingAndGlyphs" textLength="186" x="464.5" y="274.1606">Send Information to GA Desk</text><polygon fill="#A80036" points="655.5,304.2266,665.5,308.2266,655.5,312.2266,659.5,308.2266" style="stroke: #A80036; stroke-width: 1.0;"/><line style="stroke: #A80036; stroke-width: 1.0;" x1="457.5" x2="661.5" y1="308.2266" y2="308.2266"/><text fill="#000000" font-family="sans-serif" font-size="13" lengthAdjust="spacingAndGlyphs" textLength="149" x="464.5" y="303.2935">receive first flight event</text><polygon fill="#A80036" points="926.5,333.3594,936.5,337.3594,926.5,341.3594,930.5,337.3594" style="stroke: #A80036; stroke-width: 1.0;"/><line style="stroke: #A80036; stroke-width: 1.0;" x1="667.5" x2="932.5" y1="337.3594" y2="337.3594"/><text fill="#000000" font-family="sans-serif" font-size="13" lengthAdjust="spacingAndGlyphs" textLength="247" x="674.5" y="332.4263">Links together landing and ppr request</text><rect fill="#FFFFFF" filter="url(#fj6kj5h)" height="40.2656" style="stroke: #000000; stroke-width: 2.0;" width="552" x="403" y="345.4922"/><polygon fill="#EEEEEE" points="403,345.4922,469,345.4922,469,352.4922,459,362.4922,403,362.4922,403,345.4922" style="stroke: #000000; stroke-width: 2.0;"/><text fill="#000000" font-family="sans-serif" font-size="13" font-weight="bold" lengthAdjust="spacingAndGlyphs" textLength="21" x="416" y="359.5591">ref</text><text fill="#000000" font-family="sans-serif" font-size="13" lengthAdjust="spacingAndGlyphs" textLength="106" x="628" y="378.5591">GAT Registration</text></g></svg>